# Blender v3.0.0 OBJ File: 'untitled.blend'
# www.blender.org
mtllib roof.mtl
o roof_Cube.042
v 9.842191 3.263498 -5.247782
v -6.143398 3.263494 -5.247778
v 9.842191 3.463498 -5.247782
v -6.143398 3.463494 -5.247778
v 9.842191 3.263498 3.314494
v -6.174726 3.263494 3.314331
v 9.842191 3.463497 3.313869
v -6.174726 3.463493 3.313706
v 9.842191 3.463498 2.292506
v -6.159060 3.463494 2.292426
v 9.842191 3.263498 2.292818
v -6.159060 3.263494 2.292738
v -7.176877 3.263494 -5.247778
v -7.176877 3.463494 -5.247778
v -7.192539 3.263494 2.292739
v -7.192539 3.463493 2.292426
v -6.730041 3.263494 2.292739
v -6.714378 3.263494 -5.247778
v -6.730041 3.463494 2.292426
v -6.714378 3.463494 -5.247778
v -3.451452 3.263495 -5.247778
v -3.451452 3.463495 -5.247778
v -3.456632 3.463494 3.313845
v -3.456631 3.263495 3.314469
v -3.454041 3.263495 2.292808
v -3.454041 3.463495 2.292495
v -3.451453 3.263494 -6.026744
v -6.143398 3.263494 -6.026744
v -6.143398 3.463494 -6.026744
v -6.714379 3.263494 -6.026744
v -6.714379 3.463494 -6.026744
v -3.451453 3.463495 -6.026744
v -1.704506 3.463495 -5.247779
v -1.707943 3.463495 3.313854
v -1.707943 3.263495 3.314478
v -1.706224 3.263496 2.292812
v -1.706224 3.463495 2.292500
v -1.704506 3.263495 -5.247779
v 9.842190 3.463498 -8.195019
v 9.842190 3.263498 -8.195019
v -1.704507 3.463495 -8.195016
v -1.704507 3.263495 -8.195016
v -6.526728 3.211998 2.292739
v -0.624309 3.212000 2.292807
v -6.517102 3.211998 -2.253030
v -0.622718 3.211999 -2.253004
v -6.526728 3.390700 2.292739
v -0.624309 3.390702 2.292807
v -6.517102 3.390700 -2.253030
v -0.622718 3.390701 -2.253004
v -6.515689 3.193352 2.284245
v -0.635327 3.193354 2.284313
v -6.506100 3.193352 -2.244537
v -0.633742 3.193353 -2.244511
v -6.031379 3.193352 1.911610
v -1.118717 3.193353 1.911667
v -6.023368 3.193352 -1.871894
v -1.117393 3.193353 -1.871872
v -5.972183 3.234321 1.866064
v -1.177801 3.234323 1.866119
v -5.964365 3.234321 -1.826347
v -1.176509 3.234322 -1.826326
vt 0.416335 0.250000
vt 0.416335 0.000000
vt 0.416335 0.000000
vt 0.416335 0.250000
vt 0.416335 0.374993
vt 0.625000 0.374993
vt 0.625000 0.500000
vt 0.416335 0.500000
vt 0.625000 0.750000
vt 0.416335 0.750000
vt 0.416335 0.875007
vt 0.625000 0.875007
vt 0.625000 1.000000
vt 0.416335 1.000000
vt 0.249993 0.500000
vt 0.375000 0.500000
vt 0.375000 0.750000
vt 0.249993 0.750000
vt 0.625000 1.000000
vt 0.625000 0.875006
vt 0.625000 0.875007
vt 0.625000 1.000000
vt 0.750007 0.500000
vt 0.750007 0.750000
vt 0.125000 0.500000
vt 0.125000 0.750000
vt 0.625000 0.250000
vt 0.750007 0.500000
vt 0.875000 0.500000
vt 0.875000 0.750000
vt 0.750007 0.750000
vt 0.750007 0.750000
vt 0.750007 0.500000
vt 0.625000 0.250000
vt 0.625000 0.000000
vt 0.625000 0.000000
vt 0.625000 0.250000
vt 0.625000 0.374993
vt 0.625000 0.374993
vt 0.625000 0.250000
vt 0.625000 0.250000
vt 0.402431 0.250000
vt 0.402431 0.374993
vt 0.402431 0.750000
vt 0.402431 0.875007
vt 0.402431 1.000000
vt 0.402431 0.500000
vt 0.402431 0.000000
vt 0.625000 0.000000
vt 0.625000 0.000000
vt 0.625000 1.000000
vt 0.625000 1.000000
vt 0.416335 1.000000
vt 0.125000 0.750000
vt 0.125000 0.500000
vt 0.375000 0.374993
vt 0.375000 0.875007
vt 0.375000 1.000000
vt 0.375000 0.250000
vt 0.375000 0.000000
vt 0.402431 0.000000
vt 0.402431 0.250000
vt 0.375000 0.250000
vt 0.402431 1.000000
vt 0.375000 1.000000
vt 0.416335 0.875007
vt 0.416335 0.951825
vt 0.416335 0.951825
vt 0.416335 0.875007
vt 0.416335 0.875007
vt 0.625000 0.875007
vt 0.625000 0.951825
vt 0.416335 0.951825
vt 0.625000 0.875007
vt 0.625000 0.951825
vt 0.625000 0.951825
vt 0.625000 0.875007
vt 0.625000 0.875007
vt 0.625000 0.951825
vt 0.416335 0.875007
vt 0.416335 0.951825
vt 0.416335 0.951825
vt 0.416335 0.875007
vt 0.625000 0.951825
vt 0.625000 0.875007
vn 1.0000 0.0000 -0.0000
vn -0.0000 1.0000 0.0000
vn -0.0000 0.0031 1.0000
vn -0.0001 0.0031 1.0000
vn 0.0000 -1.0000 -0.0000
vn -0.9999 -0.0000 -0.0153
vn -1.0000 0.0000 -0.0021
vn 0.0000 0.0016 1.0000
vn -0.0000 0.0000 -1.0000
vn -1.0000 0.0000 0.0000
vn -0.8609 0.5088 -0.0003
vn 1.0000 0.0000 0.0021
vn -1.0000 0.0000 -0.0003
vn -0.0000 0.0000 1.0000
vn 0.0000 0.4145 -0.9100
vn -0.0000 0.4145 0.9100
vn 0.8609 0.5088 0.0018
vn 0.5697 0.8218 0.0002
vn -0.0000 0.7435 0.6688
vn 0.0000 0.7435 -0.6688
vn -0.5697 0.8218 -0.0012
usemtl White_wall
s 1
f 22/1/1 21/2/1 27/3/1 32/4/1
f 26/5/2 10/6/2 8/7/2 23/8/2
f 23/8/3 8/7/4 6/9/4 24/10/3
f 25/11/5 12/12/5 2/13/5 21/14/5
f 9/15/1 7/16/1 5/17/1 11/18/1
f 18/19/5 17/20/5 15/21/5 13/22/5
f 8/7/6 10/23/6 12/24/6 6/9/6
f 3/25/1 9/15/1 11/18/1 1/26/1
f 24/10/5 6/9/5 12/12/5 25/11/5
f 22/1/2 4/27/2 10/6/2 26/5/2
f 16/28/7 14/29/7 13/30/7 15/31/7
f 17/32/8 19/33/8 16/28/8 15/31/8
f 20/34/9 18/35/9 13/36/9 14/37/9
f 19/38/2 20/34/2 14/37/2 16/39/2
f 10/6/2 4/27/2 20/34/2 19/38/2
f 20/34/2 4/27/2 29/40/2 31/41/2
f 12/24/8 10/23/8 19/33/8 17/32/8
f 2/13/5 12/12/5 17/20/5 18/19/5
f 33/42/2 22/1/2 26/5/2 37/43/2
f 35/44/5 24/10/5 25/11/5 36/45/5
f 36/45/5 25/11/5 21/14/5 38/46/5
f 34/47/3 23/8/3 24/10/3 35/44/3
f 37/43/2 26/5/2 23/8/2 34/47/2
f 38/48/9 21/2/9 22/1/9 33/42/9
f 27/3/9 28/49/9 29/40/9 32/4/9
f 29/40/9 28/49/9 30/50/9 31/41/9
f 2/13/5 18/19/5 30/51/5 28/52/5
f 21/14/5 2/13/5 28/52/5 27/53/5
f 4/27/2 22/1/2 32/4/2 29/40/2
f 18/35/10 20/34/10 31/41/10 30/50/10
f 3/25/1 1/26/1 40/54/1 39/55/1
f 9/56/2 37/43/2 34/47/2 7/16/2
f 7/16/3 34/47/3 35/44/3 5/17/3
f 11/57/5 36/45/5 38/46/5 1/58/5
f 5/17/5 35/44/5 36/45/5 11/57/5
f 3/59/2 33/42/2 37/43/2 9/56/2
f 40/60/9 42/61/9 41/62/9 39/63/9
f 38/48/10 33/42/10 41/62/10 42/61/10
f 33/42/2 3/59/2 39/63/2 41/62/2
f 1/58/5 38/46/5 42/64/5 40/65/5
f 44/66/11 46/67/11 54/68/11 52/69/11
f 48/70/5 47/71/5 49/72/5 50/73/5
f 43/74/12 45/75/12 49/72/12 47/71/12
f 46/67/13 44/66/13 48/70/13 50/73/13
f 44/66/9 43/74/9 47/71/9 48/70/9
f 45/75/14 46/67/14 50/73/14 49/72/14
f 53/76/2 51/77/2 55/78/2 57/79/2
f 43/74/15 44/66/15 52/69/15 51/77/15
f 46/67/16 45/75/16 53/76/16 54/68/16
f 45/75/17 43/74/17 51/77/17 53/76/17
f 56/80/18 58/81/18 62/82/18 60/83/18
f 52/69/2 54/68/2 58/81/2 56/80/2
f 51/77/2 52/69/2 56/80/2 55/78/2
f 54/68/2 53/76/2 57/79/2 58/81/2
f 60/83/2 62/82/2 61/84/2 59/85/2
f 55/78/19 56/80/19 60/83/19 59/85/19
f 58/81/20 57/79/20 61/84/20 62/82/20
f 57/79/21 55/78/21 59/85/21 61/84/21
